<?xml version="1.0" encoding="UTF-8"?><svg id="Chicago" xmlns="http://www.w3.org/2000/svg" xmlns:xlink="http://www.w3.org/1999/xlink" viewBox="0 0 864 1152"><defs><style>.cls-1{fill:none;}.cls-2{font-size:136.46px;}.cls-2,.cls-3,.cls-4,.cls-5,.cls-6{fill:#fff;}.cls-2,.cls-5,.cls-6{font-family:JosefinSans-Bold, 'Josefin Sans';font-weight:700;}.cls-7{fill:#dc2528;opacity:.8;}.cls-8{clip-path:url(#clippath-1);}.cls-4{font-family:JosefinSans-Light, 'Josefin Sans';font-size:81.46px;font-weight:300;}.cls-5{font-size:24.44px;}.cls-9{fill:#86c5db;}.cls-10{letter-spacing:-.03em;}.cls-6{font-size:41.03px;}.cls-11{clip-path:url(#clippath);}</style><clipPath id="clippath"><rect class="cls-9" x="35.14" y="46.6" width="793.72" height="1058.8"/></clipPath><clipPath id="clippath-1"><rect class="cls-1" x="998.98" y="34.27" width="793.72" height="1058.8"/></clipPath></defs><rect class="cls-9" x="35.14" y="46.6" width="793.72" height="1058.8"/><g class="cls-11"><g id="zjXc9c"><image id="zjXc9c-2" width="3326" height="3326" transform="translate(-96.07 40.9) scale(.33)" xlink:href="/marathons/chicago-full.png"/></g></g><rect class="cls-7" x="35.14" y="46.6" width="793.72" height="1058.8"/><path class="cls-3" d="M501.64,717.38c-.2,1.3-.02,2.7,0,4.02l.16,6.97c.02.67.12,1.41.05,2.08-.05.42-.06.45-.49.51-.86.13-1.83.03-2.7.04l-3.51.05c-2,.03-4.55-.24-5.36,2.14-.17.51-.17.98-.16,1.5,0,1.4.05,2.8.08,4.19.11,6.17.23,12.34.34,18.51.17,8.98.33,17.97.5,26.95.18,9.66.36,19.32.54,28.98.15,8.22.31,16.43.46,24.65.09,4.65.17,9.31.26,13.96,0,.36,0,.71.02,1.07.09,1.5.95,2.32,1.95,3.3.66.65,1.33,1.48,2.17,1.9.6.3.79.18.9.74.19,1.09,0,2.38.01,3.48.03,8.02.05,16.04.08,24.06,0,.93-.36.79-1.25.79l-6.51-.02h-2.95c-.25-.01-1.11.14-1.33-.08s-.06-.97-.06-1.22v-2.84c0-2.24,0-4.48-.01-6.72,0-.5.03-1.02,0-1.52-.09-1.61-1.16-2.91-2.79-3.11-1.37-.16-2.83-.02-4.21-.01l-6.86.04c-.6,0-1.9.3-2.1-.34s0-1.61,0-2.26c-.01-3.58-.03-7.16-.04-10.75-.03-8.92-.06-17.85-.09-26.77,0-1.84.13-3.74-.04-5.57s-.63-3.74-.95-5.59c-.1-.56-.21-1.06-.16-1.61.07-.87.25-1.74.31-2.61.23-3.19.02-6.46.02-9.65s.19-6.65,0-9.94c-.1-1.77-1.39-3.06-3.17-3.12-.53-.02-1.06.03-1.59.05l-6.54.2c-1.81.05-3.62.08-5.43.11-8.82.16-17.64.32-26.47.48-1.78.03-3.56.06-5.34.1-1.97.05-3.93.09-5.9.14l-3.41.08c-.72.02-1.59-.09-2.29.05-.55.11-.48-.37-.21.79s-.01.79.45.59c.57-.23,1.14-.77,1.65-1.11,1.89-1.27,3.77-2.54,5.66-3.81,1.47-.99,2.96-1.97,4.42-2.98,1.22-.84,1.31-1.82,1.27-3.16-.12-3.89-.11-7.8-.35-11.68-.18-2.86-3.26-2.21-5.24-2.16-8.54.24-17.08.48-25.63.72l-12.17.34-3.65.1c-.27,0-.63-.05-.89.03-.67.19.79.29.59.81.17-.45-.04-1.36-.06-1.82l-.13-4.15c-.13-4.21-.25-8.42-.38-12.63-.26-8.53-.52-17.05-.77-25.58-.03-.91.06-1.91-.09-2.81,0-.04.02-.41-.01-.43.12.06-1.01.6-.75.8.04.03.22-.01.28,0,.86.13,1.87-.04,2.74-.06l4.77-.11c9.17-.21,18.34-.41,27.51-.62l9.56-.22c.49-.01,1,.02,1.49-.03,1.76-.17,2.08-1.56,2.04-2.99-.22-8.1-.44-16.2-.66-24.3-.08-3.09-.13-6.19-.25-9.28-.06-1.46-.83-2.48-2.4-2.5-1.9-.02-3.82.12-5.72.18-3.94.12-7.88.2-11.82.26l-23.88.33c-9.54.13-19.07.26-28.61.39-6.52.09-13.05.18-19.57.27-.62,0-1.31-.07-1.92.03-.04,0-.34-.03-.36,0,0,0-.02,0-.02,0-.07.13.9.71.81.77.03-.02-.02-.16,0-.2.16-.35,0-1.17,0-1.56,0-.27.14-1.14,0-1.38-.26-.44-.74.81-.84.64,0,.01.13-.01.15,0,.41.17,1.35-.06,1.78-.08l6.54-.28c6.48-.27,12.95-.23,19.43-.44s13.08-.39,19.63-.59c5.2-.15,10.4-.37,15.59-.44,7.94-.11,15.88-.21,23.82-.32,4.41-.06,8.83-.12,13.24-.18,2.24-.03,4.51.04,6.74-.09,2.4-.14,2.2-2.29,2.16-4.05l-.04-1.6c0-.09.05-.42-.01-.48-.19-.21-.74.77-.81.69.07.09.89-.02,1-.03,4.08-.11,8.17-.23,12.25-.34,3-.08,6.1.06,9.08-.25,1.95-.2,2.07-1.77,2.03-3.28l-.12-5.03-.34-13.83-.11-4.65c0-.08.05-.77-.02-.8.03.02-.79.76-.78.8,0,0,.2.04.16,0,.07.06.39.02.48.02l1.83.08c1.52.06,2.91-.38,2.98-2.17.02-.4-.02-.81-.02-1.22-.04-1.96-.07-3.93-.11-5.89-.14-7.36-.28-14.72-.41-22.08-.18-9.56-.36-19.12-.54-28.68-.17-8.92-.33-17.84-.5-26.76-.1-5.44-.2-10.88-.31-16.32-.03-1.63.11-3.6-2.16-3.77-1.6-.12-3.26,0-4.86,0h-6.37c-.21,0-.62-.08-.81,0-.56.25.86.67.63.82.04-.03,0-.47,0-.52l-.04-3.05-.16-11.55c-.12-8.74-.25-17.47-.37-26.21l-.05-3.21c0-.16.05-.47,0-.62,0-.01,0-.03,0-.04h0c-1.25.49-1.56.75-.93.79.14.05.32.02.47,0,.9-.09,1.68-.75,1.84-1.65s-.39-1.82-.74-2.62l-1.78-4.02c-3.56-8.03-7.12-16.07-10.68-24.1-.44-1-.87-2.02-1.33-3.01-.11-.23-.18-.41-.33-.61-.26-.37-.62-.65-.95-.95-.17-.15-.35-.41-.56-.51-.36-.18.07.35-.04.02-.77-2.25-1.69-4.47-2.52-6.7-.33-.88-.68-1.77-.97-2.66-.21-.64-.32-1.3-.38-1.97-.03-.32-.03-.65-.07-.97.01.11-.19.41-.05.05.38-.99.89-1.95,1.33-2.91.34-.74.83-1.55.88-2.38.04-.62-.02-1.27-.04-1.89l-.22-11.3c-.09-4.74-.18-9.48-.27-14.21-.05-2.72,0-5.46-.16-8.18-.09-1.61-1.26-3.38-1.92-4.82-1.71-3.76-3.42-7.53-5.13-11.29-3.15-6.94-6.3-13.88-9.45-20.82-.06-.13-.11-.35-.21-.46.6.7.03.52.14.31.05-.11,0-.36,0-.49l.03-1.69.02-1.6c0-.14.06-.44,0-.58-.18-.53-.32.87-.84.68.35.13,1.11-.08,1.48-.11l6.71-.49c1.49-.11,3.02-.33,4.51-.33.2,0,.81.17.94.08-.07.05-.52-.98-.73-.63-.08.12-.02.47-.02.61-.03,1.01-.12,2.02-.1,3.03.02,1.27.76,2.51,1.23,3.66,1.17,2.89,2.38,5.77,3.51,8.67,2.71,6.94,5.32,13.92,7.99,20.89l4.05,10.59c.21.55.48,1.1.64,1.67-.1-.36,0,.19,0,.34l.03,1.38c.16,8.52.32,17.05.48,25.57.04,2.32-.06,4.69.13,7.01.12,1.49,1.82,2.81,2.76,3.85l4.22,4.68c.13.14.27.28.39.43-.15-.21-.13-.18-.03.02.29.57.63,1.13.94,1.7l3.34,6.04c.71,1.28,1.41,2.56,2.13,3.84-.06-.11-.15-.37-.03-.07.1.26.2.52.3.78l1.04,2.68,2.4,6.16c.1.26.18.57.31.81.04.06.04.17.09.22.01.01,0,.05.02.06h0c.16.42.44.09.85-.97-.55-.22-1.88.15-2.46.2-1.84.15-4.83-.16-5,2.36-.07,1.07.03,2.19.04,3.26l.18,13.62c.02,1.39,0,2.79.06,4.18.07,1.73,1.49,3.46,2.36,4.89.31.52.63,1.04.97,1.54.12.18.25.36.38.53.1.14.45.72.27.35.26.55.53,2.02.69,2.93.22,1.22.4,2.44.56,3.66.11.81.12,1.68.54,2.4.92,1.58,2.37,2.91,3.17,4.55.08.16-.02-.08.01.01.06.17.06.37.1.55.07.4.1.86.22,1.25.16.53.5.92.84,1.33.2.24.41.49.61.73.1.13.38.57.17.21.4.7.74,1.43,1.11,2.15.22.43.44.87.67,1.3.06.12.11.24.19.36.1.16-.1-.31-.1-.32-.02.1-.02.32,0,.41,0-.02-.02.38,0,.41-.22-.23.91-.5.58-.71-.04-.02-.29.12-.34.13-.56.13-1.13.42-1.67.62-.84.31-2.06.57-2.64,1.3-.69.87-.85,2.61-.88,3.7-.01.36.02.72.02,1.07.11,5,.22,10,.34,15,.19,8.67.39,17.34.58,26.02.22,9.64.43,19.28.65,28.92.18,7.9.35,15.8.53,23.7.08,3.46.16,6.92.23,10.37.12,5.78.21,11.57.32,17.35.15,7.9.29,15.8.44,23.71.02,1.01-.05,2.06.91,2.74,1.08.77,3.19.4,4.42.4,2.3,0,4.6,0,6.9,0,1.24,0,3.06.33,4.26-.18,1.75-.74,1.23-3.11,1.18-4.61l-.23-6.79c-.06-1.78-.11-3.55-.16-5.33-.24-8.66-.48-17.33-.72-25.99-.07-2.36-.17-4.73-.2-7.09-.02-1.66-.25-3.72.48-5.26.95-2,2.87-2.68,4.93-2.72l12.54-.3c1.5-.04,3.42-.32,4.01,1.51.37,1.16-.11,2.82-.24,3.98-.38,3.39-.94,6.81-1.14,10.21-.16,2.78-.08,5.59-.11,8.37-.09,6.6-.18,13.19-.27,19.79-.03,1.87,2.88,1.87,2.9,0,.1-7.29.2-14.59.3-21.88.03-2.18-.07-4.4.11-6.57.34-3.92.88-7.84,1.32-11.76.22-1.95.04-3.83-1.54-5.25-1.49-1.35-3.23-1.35-5.09-1.31l-12.6.3c-2.13.05-4.1.44-5.79,1.87-2.29,1.93-2.68,4.58-2.7,7.39-.01,2.09.06,4.18.12,6.28.24,8.83.49,17.66.73,26.49.05,1.81.09,3.62.15,5.42.06,1.94.13,3.89.2,5.83l.12,3.43c.02.53-.14,1.47.07,1.97.18.43,1.14-.52.73-.7-.14-.06-.48,0-.63,0h-12.12c-.11,0-.51-.07-.61,0-.35.25.86.68.7.8.18-.15-.03-1.76-.04-1.99-.16-8.39-.31-16.79-.47-25.18-.09-5.03-.17-10.07-.28-15.1-.09-4.02-.18-8.04-.27-12.05-.18-8.23-.37-16.46-.55-24.69-.22-9.7-.44-19.41-.65-29.11-.19-8.41-.38-16.82-.57-25.23-.1-4.46-.2-8.92-.3-13.38,0-.14,0-.28,0-.42,0-.3-.09.39.02-.16.1-.51.28-1.08.29-1.59,0-.33.29-.49-.23-.13-.64.46-.16.18.03.13.99-.24,1.99-.73,2.94-1.09,1.17-.44,1.84-1.08,1.89-2.4.03-.94-.23-1.65-.65-2.46-.87-1.68-1.63-3.22-2.86-4.67-.16-.19-.26-.5-.2-.23.09.41.03-.22.03-.3-.04-.44-.11-.94-.24-1.36-.22-.73-.78-1.36-1.21-1.97l-1.94-2.78c-.07-.1-.54-.73-.35-.37.16.29.01,0-.01-.2-.03-.24-.06-.48-.09-.72-.32-2.43-.52-5.05-1.33-7.37-.35-.99-.84-1.43-1.37-2.28-.72-1.13-1.39-2.29-2.06-3.45-.12-.21-.22-.43-.36-.63-.21-.3-.17-.42-.12.01-.01-.09,0-.2,0-.29.03-.52-.01-1.05-.02-1.57l-.08-5.99-.17-12.5c0-.1.07-.94-.01-1,.15.1-1.04.6-.78.79.05.03.34-.03.38-.03.5,0,1.02-.08,1.52-.12,1.8-.15,5.87.19,5.44-2.68-.21-1.4-1.03-2.84-1.54-4.15l-2.37-6.08c-1.09-2.81-2.78-5.4-4.24-8.03-.89-1.61-1.74-3.25-2.68-4.84-.57-.97-1.43-1.76-2.18-2.59l-4.45-4.93c-.15-.16-.33-.47-.53-.58-.36-.21.22.37.16.46.09-.11-.01-.64-.01-.78l-.19-10.18c-.15-7.72-.08-15.49-.44-23.2-.08-1.65-1.03-3.32-1.61-4.84l-4.68-12.23c-2.23-5.84-4.37-11.73-6.71-17.53-1.43-3.55-2.98-7.07-4.32-10.65,0-.02-.13-.34-.1-.19-.01-.06.03-.75.04-1,.03-.94.14-1.92.09-2.86-.09-2.15-2.18-2.34-3.86-2.22-3.9.29-7.82.51-11.72.86-2.56.23-2.3,2.47-2.33,4.41-.02,1.25-.17,2.45.35,3.61,3.04,6.79,6.15,13.55,9.23,20.32,1.76,3.87,3.51,7.73,5.27,11.6l1.5,3.3c.08.17.16.53.3.66-.05-.05-.06-.69-.11-.18-.1.97.04,2.03.06,3.01l.11,5.54c.09,4.75.18,9.51.27,14.26.07,3.7.14,7.4.21,11.11,0,.41-.02.83.02,1.23,0,.06-.03.25,0,.29.1.14.26-.48.08-.25-.55.73-.85,1.85-1.23,2.68-.33.73-.83,1.53-.98,2.33-.44,2.38.76,4.99,1.57,7.18s1.6,4.35,2.44,6.5c.48,1.21,1.71,1.68,2.13,2.63s.86,1.94,1.29,2.92c3.57,8.05,7.14,16.11,10.71,24.16l1.8,4.06c.14.31.25.79.46,1.05.03.04.04.18.09.2-.04-.02,1.03-1.15.99-1.23-.16-.26-1.18.07-1.39.17-1.83.87-1.13,4.59-1.1,6.19.13,8.86.25,17.72.38,26.58l.16,11.27c.03,2.04-.46,5.02,2.43,5.1,1.9.06,3.81,0,5.71,0h3.44c.75,0,1.69.15,2.42,0,.04,0,.38.03.39,0,0,.02-.72-.88-.82-.79-.04.04.01.3,0,.35-.06.54.02,1.13.03,1.67.11,5.68.21,11.36.32,17.04.17,9.05.34,18.11.51,27.16.18,9.52.36,19.03.53,28.55.13,7.19.27,14.39.4,21.58l.1,5.44c0,.21-.09.72.02.91-.09-.17,1.09-.56.61-.8-.36-.18-1.2-.05-1.62-.07-.97-.04-2.1-.26-2.91.43-.98.83-.75,2.13-.72,3.27l.13,5.43.34,13.86c.03,1.35-.06,2.78.1,4.12.01.1-.03.27,0,.36.17.41,1.17-.58.79-.73-.26-.1-.81.02-1.09.03l-12.5.35-6.23.17c-.96.03-2.09-.1-3.03.17-1.35.38-1.53,1.61-1.5,2.79l.04,1.65c.01.44-.11,1.12.04,1.54.17.5,1.1-.51.79-.64-.06-.03-.17.01-.23,0-.32-.05-.69,0-1.01.01-7.9.11-15.79.21-23.69.32-6.77.09-13.54.15-20.31.27-6.45.12-12.89.38-19.33.57s-12.7.39-19.06.58c-2.83.09-5.66-.05-8.48.02-3.84.1-7.68.32-11.52.49-1.24.05-2.71-.1-3.92.24-1.43.41-1.52,1.74-1.52,2.97,0,.9-.13,1.89.05,2.78.44,2.13,2.93,1.68,4.52,1.66,6.69-.09,13.38-.18,20.06-.28,9.59-.13,19.19-.26,28.78-.4,7.87-.11,15.73-.22,23.6-.33,4.13-.06,8.25-.15,12.37-.28l3.22-.1c.17,0,1.54.1,1.64-.05-.13.19-.54-1.09-.77-.74-.04.06.02.27,0,.35-.04.44.02.92.04,1.37.1,3.77.2,7.55.31,11.32l.38,14.14.14,5.2c.02.58-.2,1.87.06,2.4-.25-.5,1.35-.62.61-.75-.28-.05-.62.01-.9.02l-3.65.08c-4.09.09-8.17.18-12.26.28-8.65.2-17.3.39-25.95.59-1.88.04-5.35-.5-5.51,2.2-.11,1.92.12,3.91.18,5.83.27,9.05.55,18.11.82,27.16.11,3.74.23,7.48.34,11.22.06,1.87-.43,5.15,2.23,5.3,1.99.11,4.06-.11,6.06-.17,4.3-.12,8.6-.24,12.9-.36,8.22-.23,16.44-.46,24.66-.69.28,0,1.78.16,1.98-.06.11-.12-.76-.78-.75-.79-.05.05.02.5.02.57l.07,2.45.21,6.95.07,2.46c0,.09-.04.41.01.48-.29-.38.82-.78.29-.57s-1.07.72-1.54,1.04l-2.54,1.71-5.76,3.88c-.97.65-2.76,1.47-3.18,2.64-.51,1.41.58,2.71,2,2.78.52.02,1.06-.03,1.59-.04,5.87-.14,11.73-.27,17.6-.38,8.75-.16,17.5-.32,26.25-.48,1.98-.04,3.97-.08,5.95-.14l3.5-.11c.67-.02,1.66-.24,2.32-.07.39.1.34.17.37.53.05.59,0,1.2,0,1.79,0,4.44,0,8.87-.01,13.31,0,1.29.05,2.59,0,3.87-.05,1.4-.47,2.76-.25,4.16.39,2.45,1.06,4.93,1.06,7.14l.03,8.93c.03,9.14.06,18.29.1,27.43,0,2.53-.03,5.07.03,7.6.05,1.88,1.18,3.33,3.15,3.43,1.55.08,3.13-.02,4.68-.03l6.63-.04c.28,0,1.03-.15,1.28,0,.36.2.22.76.22,1.14,0,3.72-.17,7.5.01,11.21.08,1.53,1.04,2.82,2.58,3.09.51.09,1.04.06,1.56.06l6.51.02c1.46,0,3.01.16,4.47-.02,2.07-.25,2.79-2.01,2.78-3.83-.03-8.11-.06-16.21-.08-24.32,0-1.06.03-2.13-.01-3.19-.04-.94-.32-1.78-1.02-2.43-.48-.44-1.03-.49-1.55-.81-.31-.19-.59-.57-.84-.82-.52-.51-1.44-1.08-1.61-1.8-.09-.36-.02-.84-.02-1.21-.09-4.82-.18-9.64-.27-14.46-.15-8.3-.31-16.6-.46-24.9-.18-9.71-.36-19.42-.54-29.14-.17-8.95-.33-17.9-.5-26.84-.11-6.04-.22-12.08-.34-18.11-.02-1.21-.22-2.57-.07-3.77.06-.47.11-.48.65-.52,2.11-.15,4.27-.06,6.38-.09,1.83-.03,3.91.17,4.88-1.8.58-1.18.28-2.87.25-4.13l-.15-6.56-.06-2.54c0-.23.01-.48-.02-.71-.05-.41-.03-.06-.04,0,.28-1.83-2.52-2.62-2.8-.77h0Z"/><g class="cls-8"><g id="V8t2xr"><image id="V8t2xr-2" width="3326" height="3326" transform="translate(809.37 11.96) scale(.39)" xlink:href="/marathons/chicago-full-2.png"/></g></g><text class="cls-2" transform="translate(97.09 191.11)"><tspan x="0" y="0">CHIC</tspan><tspan class="cls-10" x="346.33" y="0">A</tspan><tspan x="437.21" y="0">GO</tspan></text><text class="cls-4" transform="translate(102.25 259.53)"><tspan x="0" y="0">M A R A T H O N</tspan></text><text class="cls-6" transform="translate(723.68 1041.57)"><tspan x="0" y="0">26.2</tspan></text><text class="cls-5" transform="translate(706.52 1076.17)"><tspan x="0" y="0">03:02:22</tspan></text><text class="cls-5" transform="translate(71.58 1076.25) rotate(-.11)"><tspan x="0" y="0">#11456</tspan></text><text class="cls-5" transform="translate(371.2 293.82) rotate(-.11)"><tspan x="0" y="0">02 · 10 · 26</tspan></text><text class="cls-6" transform="translate(71.65 1041.75) rotate(-.11)"><tspan x="0" y="0">John Doe</tspan></text></svg>