<?xml version="1.0" encoding="UTF-8"?><svg id="las_egas" xmlns="http://www.w3.org/2000/svg" xmlns:xlink="http://www.w3.org/1999/xlink" viewBox="0 0 864 1152"><defs><style>@import url('https://fonts.googleapis.com/css2?family=Josefin+Sans:wght@300;700&display=swap');.cls-1{fill:none;}.cls-2{font-size:118.49px;}.cls-2,.cls-3,.cls-4,.cls-5,.cls-6{fill:#fff;}.cls-2,.cls-5,.cls-6{font-family:JosefinSans-Bold, 'Josefin Sans';font-weight:700;}.cls-3{font-family:JosefinSans-Light, 'Josefin Sans';font-size:83.4px;font-weight:300;}.cls-7{fill:#2b4c73;opacity:.9;}.cls-5{font-size:24.44px;}.cls-6{font-size:41.03px;}.cls-8{clip-path:url(#clippath);}</style><clipPath id="clippath"><rect class="cls-1" x="35.14" y="46.6" width="793.72" height="1058.8"/></clipPath></defs><g class="cls-8"><g id="qviu1D"><image id="qviu1D-2" width="3326" height="3326" transform="translate(-167.34 -39.02) scale(.4)" xlink:href="/marathons/las-vegas-full.png"/></g></g><rect class="cls-7" x="35.14" y="46.6" width="793.72" height="1058.8"/><path class="cls-4" d="M547.45,420.38c12.05,6.46,24.1,12.92,36.16,19.38,1.36.73,3.04.33,3.86-1.01,2.61-4.31,5.21-8.61,7.82-12.92.75-1.25.33-3.17-1.01-3.86-12.7-6.46-25.41-12.92-38.11-19.38-1.3-.66-3.14-.41-3.86,1.01-10.1,19.88-20.19,39.75-30.29,59.63l2.43-1.4c-17.59-.66-35.18-1.33-52.77-1.99l2.72,3.57c2.46-8.61,3.88-14.47,7.44-21.46,2.34-4.59,4.84-9.12,7.02-13.79,1.44-3.08,1.36-6.57,1.71-9.94.14-1.4-1.41-2.98-2.82-2.82-9.21,1.02-18.42,2.04-27.62,3.06-1.52.17-2.82,1.16-2.82,2.82,0,1.42-.27,3.14,0,4.54.31,1.6.38-.36.12.19-.4.85-.83,1.69-1.24,2.53-1,2.03-1.85,3.53-1.85,5.77,0,7.53.45,15.09.68,22.62.09,2.94.21,5.88.26,8.82.03,1.47.15-.65,0,.86-.21,2-.6,3.99-.89,5.98-.22,1.5-.28,3.18-.7,4.65.25-.87-.12.23-.52.87-1.74,2.81-3.37,5.7-5.05,8.54-3.75,6.34-7.51,12.68-11.26,19.03l2.43-1.4c-33.88-.3-67.76-.6-101.64-.9-4.79-.04-9.58-.08-14.38-.13l2.82,2.82c.24-7.82.96-15.78.72-23.6-.1-3.1-2.06-5.04-3.83-7.56-1.02-1.46-2.26-4.25-3.71-5.29-.79-.57.02.4.05.87-.02-.26-.04-.58,0-.83.39-2.59-.04-5.57-.06-8.18l-.1-13.92c-.07-10.51-.15-21.03-.22-31.54-.04-6.08-.08-12.16-.13-18.24l-4.24,2.43c2.86,1.25,5.16,1.88,8.22,2.46,1.04.2-.67-1.19.39.16-.8-1.03,2.03,1.94.9,1.23,1.83,1.14-1-1.39-.26.03-.27-.53-.04-.2-.29-.12-6.38,1.94-4.78,9.16-4.78,14.41,0,1.52,1.29,2.82,2.82,2.82,4.09,0,9.88,1.43,12.57-2.13,3.82-5.06,7.3-10.55,10.76-15.87,2.86-4.4-.24-7.08-3.29-10.36-1.71-1.83-3.98-5.54-6.22-6.68-2.03-1.04,4.16.46.36,1.31.04,0,.03-2.04.03-1.99.16-1.3.04-2.67.05-3.98l-2.82,2.82c3.19,0,5.65-.05,8.67-1.06.86-.29,1.8-.74,2.7-.9-1.22.22.43.05.68.04,2-.07,4-.02,6-.03,2.9-.02,6.95.74,9.4-1.01,2.71-1.93,4.79-5.14,6.67-7.82,1.28-1.83-.45-4.19-2.43-4.24-2.97-.08-6.25.25-9.17-.25,1.21.2-1.54-.65-1.98-.81l-5.78-2.02c-4.86-1.7-9.85-3.22-15.02-3.59-6.2-.44-11.29-.51-16.25,3.67-2.24,1.89-1.92,4.54-2.2,7.34-.34,3.49-.23,5.11,1.69,8.13-.39-.62.22-1.64-.4-1.31-.35.19.07.14-.25.43-.6.54-1.18,1.85-1.54,2.58-.54,1.09-.74,1.84-.82,3.04-.22,3.54.15,7.22.23,10.77s5.72,3.64,5.64,0l-.18-8.61c-.02-.72-.04-1.44-.05-2.15-.01-1.33-.02-.24-.28.35.6-1.39,1.68-2.56,2.3-3.95.55-1.22.84-2.08.49-3.42-.15-.56-.56-1.07-.82-1.57-.2-.38-1.11-2.56-.85-1.25.19.96.46-2.83.53-3.53l.41-4.19-1.4,2.43,2.61-1.74c.49-.33,3.03-1.91,1.92-1.51-1.19.44,1.81.05,2.46.02,1.03-.04,2.07-.13,3.1-.12,4.52.03,7.39.59,12.17,1.9,4.12,1.13,8.05,2.95,12.14,4.2,3.57,1.09,7.58.68,11.3.78l-2.43-4.24c-.79,1.13-1.85,2.63-2.29,3.12-.6.67-1.27,1.29-1.9,1.93l-1.21,1.23c-.87.77-.41.68,1.38-.29-2.88-.81-7.09.04-10.08.06-5.75.03-9.88,1.94-15.15,1.94-1.54,0-2.8,1.29-2.82,2.82-.05,3.56-.7,6.5,1.76,9.24,2.8,3.1,5.71,7.22,9.05,9.72-.93-.7-.14-.92-.31.05.02-.12.69-1.9.28-1.55-.44.38-.79,1.17-1.12,1.65l-4.08,6.01c-2.33,3.44-4.67,6.89-7,10.33l2.43-1.4h-9.64l2.82,2.82v-4.65c0-1.18-.07-2.38,0-3.55.09-1.51-.41-.56-.19.04l.84-1.26c-1.43.92-1.56,1.12-.39.6.47-.09,1.34-.44,1.78-.7,1.43-.86,2.49-2.05,2.97-3.64,2.31-7.57-8.15-8.21-11.97-9.88-1.88-.82-4.26.1-4.24,2.43.11,15.31.21,30.61.32,45.92.06,8.23.11,16.46.17,24.69.01,1.7,0,2.73.86,4.26,1.08,1.93,2.61,3.71,3.87,5.51.67.96,1.3,1.97,2.03,2.89.98,1.25.82,2.33.79.3.12,8.22-.5,16.51-.75,24.72-.05,1.53,1.33,2.81,2.82,2.82,31.14.27,62.28.55,93.42.82l19.17.17c1.06,0,2.34.22,3.38.03,2.31-.42,2.94-2.18,4.04-4.03l13.8-23.33c2.82-4.76,3.56-10.58,3.85-16.1.48-8.84-.54-18-.81-26.84-.05-1.73.07-3.58-.16-5.3-.05-.38-.03-.8-.04-1.19.05,1.73-.26.91.52-.51,2.22-4.1,2.49-6.7,2.49-11.33l-2.82,2.82c9.21-1.02,18.42-2.04,27.62-3.06l-2.82-2.82c-.21,2.06-.62,4.18-.64,6.25-.01,1.91.28-.3.11.04-.3.6-.61,1.19-.91,1.79-2.5,4.91-5.01,9.83-7.51,14.74-3.38,6.63-4.99,13.72-7.03,20.87-.52,1.82.92,3.5,2.72,3.57,17.59.66,35.18,1.33,52.77,1.99.94.04,2.01-.55,2.43-1.4,10.1-19.88,20.19-39.75,30.29-59.63l-3.86,1.01c12.7,6.46,25.41,12.92,38.11,19.38l-1.01-3.86c-2.61,4.31-5.21,8.61-7.82,12.92l3.86-1.01c-12.05-6.46-24.1-12.92-36.16-19.38-3.2-1.71-6.05,3.15-2.85,4.87h0Z"/><path class="cls-4" d="M409.82,956.08c-.1-30-.19-60-.29-90l-.45-137.28c-.02-6.31-.04-12.63-.06-18.94,0-1.69.03-3.39-.02-5.08-.02-.71.05-2.35-.06-1.19.87-8.96,2.73-17.07,6.46-25.22.33-.72-.39.85.08-.11.25-.49.51-.97.77-1.46l2.87-5.47c19.99-38.07,39.97-76.14,59.96-114.21,14.25-27.15,28.5-54.3,42.76-81.44,1.68-3.19,3.35-6.39,5.03-9.58s-3.18-6.06-4.87-2.85c-13.43,25.58-26.86,51.15-40.28,76.73-21.17,40.32-42.34,80.64-63.51,120.97-4.35,8.29-10.24,17.36-12.37,26.55-2.37,10.23-2.47,19.66-2.44,30,.14,43.34.28,86.69.42,130.03.12,35.56-.29,71.17.35,106.72.01.61,0,1.22,0,1.83.01,3.63,5.65,3.64,5.64,0h0Z"/><path class="cls-4" d="M515.15,462.75c-2.92,5.78-5.83,11.55-8.75,17.33-2.35,4.65-1.08,10.1-.86,15.2.16,3.62,5.8,3.63,5.64,0-.13-3.06-.27-6.11-.4-9.17-.03-.72.04-1.53-.1-2.24-.2-1.04-.61,1.56-.3.81.38-.9.9-1.78,1.34-2.65,2.77-5.48,5.53-10.96,8.3-16.44,1.63-3.23-3.23-6.09-4.87-2.85h0Z"/><path class="cls-4" d="M469.14,463.12c-.24,2.11-.48,4.23-.73,6.34-.14,1.19-.23,2.38-.41,3.56-.19,1.25.7-.25-.28.47-1.95,1.43-2.87,2.5-3.01,4.92-.1,1.73.19,4.13.09,4.8-.31,2.12-2.21,5.1-1.93,7.2.22,1.63-.03-.88.92-.84-.31-.02-.83.51-1.11.61-1.07.39-2.59,1.23-3.5,1.91-3.16,2.38-4.04,6.05-5.22,9.62l1.97-1.97c-5.63,2.11-11.57,3.23-17.41,4.64-3.53.85-2.03,6.29,1.5,5.44,5.47-1.32,12.13-1.89,17.17-4.55,2.72-1.44,2.89-5.21,3.79-6.76.36-.62.9-1.23,1.36-1.77.72-.85-1.28.41.8-.38,1.19-.45,3.05-1.31,3.95-2.23,1.99-2.04,2.48-6.43,3.07-9.15.28-1.29.3-2.27.26-3.62-.02-.61-.06-1.23-.12-1.84-.07-.73.64-2.64-.2-1.16s1.98-1.23,2.49-2.03c.7-1.09.86-2.09,1.05-3.32.52-3.27.76-6.61,1.14-9.9.41-3.6-5.23-3.57-5.64,0h0Z"/><text class="cls-2" transform="translate(97.09 185.52)"><tspan x="0" y="0">LAS VEGAS</tspan></text><text class="cls-3" transform="translate(99.02 254.85)"><tspan x="0" y="0">M A R A T H O N</tspan></text><text class="cls-6" transform="translate(716.04 1037.33)"><tspan x="0" y="0">26.2</tspan></text><text class="cls-5" transform="translate(698.88 1071.93)"><tspan x="0" y="0">02:30:22</tspan></text><text class="cls-5" transform="translate(63.94 1072) rotate(-.11)"><tspan x="0" y="0">#11456</tspan></text><text class="cls-6" transform="translate(64.01 1037.51) rotate(-.11)"><tspan x="0" y="0">John Doe</tspan></text><text class="cls-5" transform="translate(374.83 288.84) rotate(-.11)"><tspan x="0" y="0">01 · 10 · 27</tspan></text></svg>