<?xml version="1.0" encoding="UTF-8"?><svg id="las_egas" xmlns="http://www.w3.org/2000/svg" xmlns:xlink="http://www.w3.org/1999/xlink" viewBox="0 0 864 1152"><defs><style>.cls-1{fill:none;}.cls-2{font-size:118.49px;}.cls-2,.cls-3,.cls-4,.cls-5,.cls-6{fill:#fff;}.cls-2,.cls-4,.cls-5{font-family:JosefinSans-Bold, 'Josefin Sans';font-weight:700;}.cls-7{fill:#2b4c73;opacity:.9;}.cls-4{font-size:24.44px;}.cls-5{font-size:41.03px;}.cls-8{clip-path:url(#clippath);}.cls-6{font-family:JosefinSans-Light, 'Josefin Sans';font-size:59.7px;font-weight:300;}</style><clipPath id="clippath"><rect class="cls-1" x="35.14" y="46.6" width="793.72" height="1058.8"/></clipPath></defs><g class="cls-8"><g id="qviu1D"><image id="qviu1D-2" width="3326" height="3326" transform="translate(-167.34 -39.02) scale(.4)" xlink:href="/marathons/las-vegas-half.png"/></g></g><rect class="cls-7" x="35.14" y="46.6" width="793.72" height="1058.8"/><text class="cls-2" transform="translate(97.09 185.52)"><tspan x="0" y="0">LAS VEGAS</tspan></text><text class="cls-6" transform="translate(105.33 249.42)"><tspan x="0" y="0">HALF M A R A T H O N</tspan></text><path class="cls-3" d="M409.88,944.92c0-2.71-.02-5.42-.02-8.13-.02-7.29-.04-14.58-.06-21.87-.03-10.6-.06-21.21-.09-31.81-.04-12.65-.08-25.3-.11-37.96-.04-13.44-.08-26.87-.12-40.31-.04-12.96-.08-25.91-.12-38.87-.03-11.21-.07-22.42-.1-33.64-.02-8.2-.05-16.4-.07-24.61-.01-3.93.04-7.86-.04-11.79-.01-.54.15-.77-.08.1.65-2.44.83-5.04,1.34-7.52.45-2.17,1.13-4.31,1.69-6.46l.48-1.82c.05-.2.13-.41.16-.61.1-.53.23-.01-.18.31.03-.02.04-.08.06-.11,1.59-2.47,2.81-5.28,4.19-7.87,3.28-6.16,6.56-12.32,9.83-18.48,4.71-8.85,9.42-17.7,14.13-26.54,5.69-10.69,11.38-21.38,17.07-32.07,6.22-11.68,12.44-23.37,18.66-35.05,6.3-11.83,12.6-23.67,18.89-35.5,5.93-11.14,11.85-22.27,17.78-33.41,5.1-9.59,10.21-19.18,15.31-28.78,3.83-7.2,7.67-14.4,11.5-21.61,2.11-3.96,4.22-7.93,6.33-11.89.27-.5.54-1.01.81-1.51,1.51-2.84-2.8-5.37-4.32-2.52-1.13,2.12-2.25,4.23-3.38,6.35-3.08,5.78-6.15,11.56-9.23,17.34-4.56,8.56-9.11,17.12-13.67,25.68-5.59,10.51-11.18,21.02-16.78,31.52-6.18,11.61-12.35,23.22-18.53,34.82-6.31,11.86-12.62,23.72-18.94,35.58s-12.03,22.6-18.04,33.9c-5.24,9.85-10.48,19.7-15.73,29.55-4.01,7.53-8.01,15.05-12.02,22.58-2.34,4.39-4.67,8.78-7.01,13.16-.4.75-.83,1.49-1.2,2.26-.63,1.28-.86,2.81-1.22,4.18-.53,1.98-1.18,3.97-1.54,6-.46,2.59-1.23,5.28-1.38,7.9-.01.17,0,.35,0,.52v4.1c.03,6.28.05,12.55.07,18.83.03,9.93.06,19.86.09,29.78.04,12.26.07,24.53.11,36.79.04,13.36.08,26.72.12,40.08.04,13.19.08,26.39.12,39.58.03,11.76.07,23.52.1,35.28.03,9.09.05,18.17.08,27.26.02,5.1.03,10.19.05,15.29,0,.65,0,1.31,0,1.96,0,3.22,5.01,3.22,5,0h0Z"/><text class="cls-5" transform="translate(719.76 1037.75)"><tspan x="0" y="0">26.2</tspan></text><text class="cls-4" transform="translate(702.6 1072.36)"><tspan x="0" y="0">02:30:22</tspan></text><text class="cls-4" transform="translate(67.66 1072.43) rotate(-.11)"><tspan x="0" y="0">#11456</tspan></text><text class="cls-5" transform="translate(67.73 1037.93) rotate(-.11)"><tspan x="0" y="0">John Doe</tspan></text><text class="cls-4" transform="translate(374.83 306.45) rotate(-.11)"><tspan x="0" y="0">01 · 10 · 27</tspan></text></svg>